<svg width="24" height="24" viewBox="0 0 24 24" fill="none" xmlns="http://www.w3.org/2000/svg">
<path d="M12.2535 5.06903C12.1767 5.02383 12.0891 5 12 5C11.9108 5 11.8233 5.02383 11.7465 5.06903L2.81549 10.3225L3.32249 11.1845L12 6.08003L20.6775 11.185L21.1845 10.323L18 8.45003V6.00003C18 5.86742 17.9473 5.74024 17.8535 5.64647C17.7598 5.55271 17.6326 5.50003 17.5 5.50003H16C15.8674 5.50003 15.7402 5.55271 15.6464 5.64647C15.5527 5.74024 15.5 5.86742 15.5 6.00003V6.97853L12.2535 5.06903ZM6.99999 12.5H12.5V15.5H6.99999V12.5Z" fill="black"/>
<path fill-rule="evenodd" clip-rule="evenodd" d="M12 7L5 11V18H2.5C2.36739 18 2.24021 18.0527 2.14645 18.1464C2.05268 18.2402 2 18.3674 2 18.5C2 18.6326 2.05268 18.7598 2.14645 18.8536C2.24021 18.9473 2.36739 19 2.5 19H20.5C20.6326 19 20.7598 18.9473 20.8536 18.8536C20.9473 18.7598 21 18.6326 21 18.5C21 18.3674 20.9473 18.2402 20.8536 18.1464C20.7598 18.0527 20.6326 18 20.5 18H19V11L12 7ZM12 8.1515L6 11.5805V18H14V12.5H17V18H18V11.58L12 8.1515Z" fill="black"/>
</svg>
