<svg width="24" height="25" viewBox="0 0 24 25" fill="none" xmlns="http://www.w3.org/2000/svg">
<g id="mail">
<path id="Vector" d="M18.6 5.30005C19.3957 5.30005 20.1587 5.61612 20.7213 6.17873C21.284 6.74134 21.6 7.5044 21.6 8.30005V17.9C21.6 18.6957 21.284 19.4588 20.7213 20.0214C20.1587 20.584 19.3957 20.9 18.6 20.9H5.40002C4.60438 20.9 3.84131 20.584 3.2787 20.0214C2.71609 19.4588 2.40002 18.6957 2.40002 17.9V8.30005C2.40002 7.5044 2.71609 6.74134 3.2787 6.17873C3.84131 5.61612 4.60438 5.30005 5.40002 5.30005H18.6ZM20.4 10.0532L12.3048 14.8172C12.2283 14.8622 12.1427 14.8896 12.0543 14.8975C11.9659 14.9054 11.8769 14.8935 11.7936 14.8628L11.6952 14.8172L3.60002 10.0556V17.9C3.60002 18.3774 3.78967 18.8353 4.12723 19.1728C4.4648 19.5104 4.92263 19.7 5.40002 19.7H18.6C19.0774 19.7 19.5353 19.5104 19.8728 19.1728C20.2104 18.8353 20.4 18.3774 20.4 17.9V10.0532ZM18.6 6.50005H5.40002C4.92263 6.50005 4.4648 6.68969 4.12723 7.02726C3.78967 7.36482 3.60002 7.82266 3.60002 8.30005V8.66245L12 13.604L20.4 8.66005V8.30005C20.4 7.82266 20.2104 7.36482 19.8728 7.02726C19.5353 6.68969 19.0774 6.50005 18.6 6.50005Z" fill="#4E5A2B"/>
</g>
</svg>
