<svg width="24" height="24" viewBox="0 0 24 24" fill="none" xmlns="http://www.w3.org/2000/svg">
<g id="fluent:mail-20-regular">
<path id="Vector" d="M19.2 4.80005C20.0213 4.80005 20.809 5.11612 21.3897 5.67873C21.9705 6.24134 22.2968 7.0044 22.2968 7.80005V17.4C22.2968 18.1957 21.9705 18.9588 21.3897 19.5214C20.809 20.084 20.0213 20.4 19.2 20.4H5.57419C4.75288 20.4 3.9652 20.084 3.38444 19.5214C2.80368 18.9588 2.47742 18.1957 2.47742 17.4V7.80005C2.47742 7.0044 2.80368 6.24134 3.38444 5.67873C3.9652 5.11612 4.75288 4.80005 5.57419 4.80005H19.2ZM21.0581 9.55325L12.7017 14.3172C12.6227 14.3622 12.5344 14.3896 12.4432 14.3975C12.3519 14.4054 12.26 14.3935 12.174 14.3628L12.0725 14.3172L3.71613 9.55565V17.4C3.71613 17.8774 3.91189 18.3353 4.26034 18.6728C4.6088 19.0104 5.0814 19.2 5.57419 19.2H19.2C19.6928 19.2 20.1654 19.0104 20.5138 18.6728C20.8623 18.3353 21.0581 17.8774 21.0581 17.4V9.55325ZM19.2 6.00005H5.57419C5.0814 6.00005 4.6088 6.18969 4.26034 6.52726C3.91189 6.86482 3.71613 7.32266 3.71613 7.80005V8.16245L12.3871 13.104L21.0581 8.16005V7.80005C21.0581 7.32266 20.8623 6.86482 20.5138 6.52726C20.1654 6.18969 19.6928 6.00005 19.2 6.00005Z" fill="black"/>
</g>
</svg>
