<svg width="24" height="24" viewBox="0 0 24 24" fill="none" xmlns="http://www.w3.org/2000/svg">
<path d="M13.5352 22.5L15.0352 24H3V3H9C9 2.58594 9.07812 2.19922 9.23438 1.83984C9.39062 1.48047 9.60547 1.16016 9.87891 0.878906C10.1523 0.597656 10.4688 0.382812 10.8281 0.234375C11.1875 0.0859375 11.5781 0.0078125 12 0C12.4141 0 12.8008 0.078125 13.1602 0.234375C13.5195 0.390625 13.8398 0.605469 14.1211 0.878906C14.4023 1.15234 14.6172 1.46875 14.7656 1.82812C14.9141 2.1875 14.9922 2.57812 15 3H21V15.0352L19.5 16.5352V4.5H18V7.5H6V4.5H4.5V22.5H13.5352ZM7.5 4.5V6H16.5V4.5H13.5V3C13.5 2.78906 13.4609 2.59375 13.3828 2.41406C13.3047 2.23438 13.1992 2.07812 13.0664 1.94531C12.9336 1.8125 12.7734 1.70312 12.5859 1.61719C12.3984 1.53125 12.2031 1.49219 12 1.5C11.7891 1.5 11.5938 1.53906 11.4141 1.61719C11.2344 1.69531 11.0781 1.80078 10.9453 1.93359C10.8125 2.06641 10.7031 2.22656 10.6172 2.41406C10.5312 2.60156 10.4922 2.79688 10.5 3V4.5H7.5ZM23.7773 17.0273L17.25 23.5664L14.0977 20.4023L15.1523 19.3477L17.25 21.4336L22.7227 15.9727L23.7773 17.0273Z" fill="black"/>
</svg>
