<svg width="24" height="24" viewBox="0 0 24 24" fill="none" xmlns="http://www.w3.org/2000/svg">
<g id="pepicons-pencil:cv">
<g id="Group">
<path id="Vector" d="M7.79995 15C7.64082 15 7.48821 14.9368 7.37569 14.8243C7.26317 14.7118 7.19995 14.5592 7.19995 14.4C7.19995 14.2409 7.26317 14.0883 7.37569 13.9758C7.48821 13.8633 7.64082 13.8 7.79995 13.8H16.2C16.3591 13.8 16.5117 13.8633 16.6242 13.9758C16.7367 14.0883 16.8 14.2409 16.8 14.4C16.8 14.5592 16.7367 14.7118 16.6242 14.8243C16.5117 14.9368 16.3591 15 16.2 15H7.79995ZM7.79995 18C7.64082 18 7.48821 17.9368 7.37569 17.8243C7.26317 17.7118 7.19995 17.5592 7.19995 17.4C7.19995 17.2409 7.26317 17.0883 7.37569 16.9758C7.48821 16.8633 7.64082 16.8 7.79995 16.8H16.2C16.3591 16.8 16.5117 16.8633 16.6242 16.9758C16.7367 17.0883 16.8 17.2409 16.8 17.4C16.8 17.5592 16.7367 17.7118 16.6242 17.8243C16.5117 17.9368 16.3591 18 16.2 18H7.79995Z" fill="black"/>
<path id="Vector_2" fill-rule="evenodd" clip-rule="evenodd" d="M13.422 1.19995H5.39998C4.92259 1.19995 4.46475 1.38959 4.12718 1.72716C3.78962 2.06472 3.59998 2.52256 3.59998 2.99995V21C3.59998 21.4773 3.78962 21.9352 4.12718 22.2727C4.46475 22.6103 4.92259 22.8 5.39998 22.8H18.6C19.0774 22.8 19.5352 22.6103 19.8728 22.2727C20.2103 21.9352 20.4 21.4773 20.4 21V8.64235C20.3999 8.19172 20.2307 7.75752 19.926 7.42555L14.7492 1.78315C14.5805 1.59925 14.3754 1.45243 14.1469 1.35203C13.9184 1.25163 13.6715 1.19984 13.422 1.19995ZM4.79998 2.99995C4.79998 2.84082 4.86319 2.68821 4.97571 2.57569C5.08823 2.46317 5.24085 2.39995 5.39998 2.39995H13.422C13.5052 2.39986 13.5876 2.4171 13.6638 2.45056C13.7401 2.48403 13.8085 2.533 13.8648 2.59435L19.0416 8.23675C19.1433 8.34735 19.1998 8.49209 19.2 8.64235V21C19.2 21.1591 19.1368 21.3117 19.0242 21.4242C18.9117 21.5367 18.7591 21.6 18.6 21.6H5.39998C5.24085 21.6 5.08823 21.5367 4.97571 21.4242C4.86319 21.3117 4.79998 21.1591 4.79998 21V2.99995Z" fill="black"/>
<path id="Vector_3" d="M13.8 2.52002V8.16002H19.44" stroke="black" stroke-linecap="round" stroke-linejoin="round"/>
<path id="Vector_4" d="M9.7608 7.35952C9.93216 7.36476 10.1028 7.33554 10.2627 7.27359C10.4225 7.21163 10.5683 7.11821 10.6914 6.99885C10.8145 6.87949 10.9123 6.73663 10.9791 6.57874C11.046 6.42086 11.0804 6.25116 11.0804 6.07972C11.0804 5.90827 11.046 5.73858 10.9791 5.58069C10.9123 5.4228 10.8145 5.27994 10.6914 5.16058C10.5683 5.04123 10.4225 4.9478 10.2627 4.88584C10.1028 4.82389 9.93216 4.79467 9.7608 4.79992C9.42816 4.8101 9.11255 4.9494 8.88086 5.1883C8.64917 5.4272 8.51959 5.74692 8.51959 6.07972C8.51959 6.41251 8.64917 6.73223 8.88086 6.97113C9.11255 7.21003 9.42816 7.34933 9.7608 7.35952Z" fill="black"/>
<path id="Vector_5" fill-rule="evenodd" clip-rule="evenodd" d="M12.3192 10.1329C12.3192 8.77207 11.1732 7.78687 9.75955 7.78687C8.34595 7.78687 7.19995 8.77087 7.19995 10.1329V10.7737C7.20027 10.8868 7.24542 10.9951 7.3255 11.075C7.40558 11.1548 7.51406 11.1997 7.62715 11.1997H11.8932C12.006 11.1993 12.1142 11.1544 12.194 11.0745C12.2739 10.9947 12.3188 10.8865 12.3192 10.7737V10.1329Z" fill="black"/>
</g>
</g>
</svg>
