<?xml version="1.0" standalone="no"?>
<!DOCTYPE svg PUBLIC "-//W3C//DTD SVG 20010904//EN"
 "http://www.w3.org/TR/2001/REC-SVG-20010904/DTD/svg10.dtd">
<svg version="1.0" xmlns="http://www.w3.org/2000/svg"
 width="193.000000pt" height="193.000000pt" viewBox="0 0 193.000000 193.000000"
 preserveAspectRatio="xMidYMid meet">

<g transform="translate(0.000000,193.000000) scale(0.100000,-0.100000)"
fill="#000000" stroke="none">
<path d="M455 1211 c-78 -32 -92 -148 -24 -205 69 -58 179 -12 179 74 0 17 -7
20 -50 20 -38 0 -50 -4 -50 -15 0 -10 10 -15 30 -15 36 0 38 -12 8 -40 -30
-28 -65 -25 -99 9 -56 57 -22 146 56 143 21 -1 46 -8 55 -17 15 -14 19 -14 29
-1 11 13 7 19 -21 36 -34 21 -78 25 -113 11z"/>
<path d="M690 1099 c0 -99 3 -119 15 -119 11 0 15 12 15 45 0 25 3 45 8 45 4
0 21 -21 37 -45 17 -25 38 -45 48 -45 23 0 22 4 -12 53 l-29 42 24 28 c13 16
24 37 24 48 0 23 -34 59 -57 60 -10 1 -30 3 -45 5 l-28 3 0 -120z m85 46 c0
-25 -4 -30 -27 -33 -26 -3 -28 -1 -28 33 0 34 2 36 28 33 23 -3 27 -8 27 -33z"/>
<path d="M907 1214 c-4 -4 -7 -47 -7 -96 0 -81 2 -91 25 -113 16 -17 35 -25
60 -25 25 0 44 8 60 25 23 22 25 32 25 120 0 78 -3 95 -15 95 -12 0 -15 -16
-15 -84 0 -67 -4 -88 -19 -107 -16 -20 -23 -22 -47 -14 -29 10 -29 12 -34 104
-5 86 -14 114 -33 95z"/>
<path d="M1166 1213 c-3 -4 -6 -58 -6 -120 0 -104 2 -114 18 -111 13 2 18 15
20 51 3 42 5 47 28 47 53 0 82 67 47 108 -18 20 -94 38 -107 25z m79 -68 c0
-23 -5 -31 -22 -33 -20 -3 -23 1 -23 33 0 32 3 36 23 33 17 -2 22 -10 22 -33z"/>
<path d="M1410 1203 c-50 -26 -76 -82 -61 -133 27 -89 127 -120 195 -60 40 36
52 76 36 123 -24 74 -101 105 -170 70z m120 -51 c46 -58 4 -142 -71 -142 -31
0 -79 53 -79 88 0 80 101 117 150 54z"/>
<path d="M430 959 c0 -2 -18 -97 -40 -209 -22 -113 -40 -208 -40 -212 0 -13
58 -9 63 5 2 6 12 58 22 114 10 56 21 100 25 98 4 -2 29 -53 55 -112 26 -59
51 -112 55 -116 3 -4 31 47 60 113 30 66 57 117 61 113 6 -6 39 -191 39 -217
0 -3 15 -6 33 -6 l34 0 -34 193 c-48 273 -39 255 -82 167 -20 -41 -51 -108
-68 -148 -18 -41 -36 -71 -41 -68 -5 3 -35 65 -67 138 -50 115 -75 165 -75
147z"/>
<path d="M1014 943 c-39 -7 -79 -60 -79 -103 0 -49 23 -74 103 -113 65 -31 80
-53 68 -100 -6 -27 -48 -49 -73 -40 -29 10 -53 35 -53 55 0 20 -4 21 -37 12
-35 -9 -30 -49 11 -90 29 -29 41 -34 80 -34 90 0 136 43 136 125 -1 64 -18 85
-104 126 -58 28 -66 35 -66 60 0 47 61 66 95 29 14 -16 21 -17 39 -8 29 15 29
14 16 38 -19 36 -77 55 -136 43z"/>
<path d="M1304 925 c-14 -35 3 -44 85 -47 l79 -3 -67 -115 c-37 -63 -82 -141
-100 -172 l-32 -58 150 0 151 0 0 30 0 30 -95 0 c-52 0 -95 3 -95 6 0 4 38 73
84 153 45 80 88 156 95 169 l12 22 -131 0 c-107 0 -132 -3 -136 -15z"/>
</g>
  <style>
        path { fill: #000; }
        @media (prefers-color-scheme: dark) {
            path { fill: #FFF; }
        }
    </style>
</svg>
